0
SECTION
2
HEADER
9
$INSUNITS
70
4
9
$ACADVER
1
AC1014
9
$HANDSEED
5
FFFF
0
ENDSEC
0
SECTION
2
TABLES
0
TABLE
2
VPORT
5
8
100
AcDbSymbolTable
0
ENDTAB
0
TABLE
2
LTYPE
5
5
100
AcDbSymbolTable
0
LTYPE
5
14
100
AcDbSymbolTableRecord
100
AcDbLinetypeTableRecord
2
BYBLOCK
70
0
0
LTYPE
5
15
100
AcDbSymbolTableRecord
100
AcDbLinetypeTableRecord
2
BYLAYER
70
0
0
ENDTAB
0
TABLE
2
LAYER
5
2
100
AcDbSymbolTable
70
2
0
LAYER
5
50
100
AcDbSymbolTableRecord
100
AcDbLayerTableRecord
2
0
70
0
6
CONTINUOUS
0
ENDTAB
0
TABLE
2
STYLE
5
3
100
AcDbSymbolTable
70
1
0
STYLE
5
11
100
AcDbSymbolTableRecord
100
AcDbTextStyleTableRecord
2
STANDARD
70
0
0
ENDTAB
0
TABLE
2
VIEW
5
6
100
AcDbSymbolTable
70
0
0
ENDTAB
0
TABLE
2
UCS
5
7
100
AcDbSymbolTable
70
0
0
ENDTAB
0
TABLE
2
APPID
5
9
100
AcDbSymbolTable
70
2
0
APPID
5
12
100
AcDbSymbolTableRecord
100
AcDbRegAppTableRecord
2
ACAD
70
0
0
ENDTAB
0
TABLE
2
DIMSTYLE
5
A
100
AcDbSymbolTable
70
1
0
ENDTAB
0
TABLE
2
BLOCK_RECORD
5
1
100
AcDbSymbolTable
70
1
0
BLOCK_RECORD
5
1F
100
AcDbSymbolTableRecord
100
AcDbBlockTableRecord
2
*MODEL_SPACE
0
BLOCK_RECORD
5
1B
100
AcDbSymbolTableRecord
100
AcDbBlockTableRecord
2
*PAPER_SPACE
0
ENDTAB
0
ENDSEC
0
SECTION
2
BLOCKS
0
BLOCK
5
20
100
AcDbEntity
100
AcDbBlockBegin
2
*MODEL_SPACE
0
ENDBLK
5
21
100
AcDbEntity
100
AcDbBlockEnd
0
BLOCK
5
1C
100
AcDbEntity
100
AcDbBlockBegin
2
*PAPER_SPACE
0
ENDBLK
5
1D
100
AcDbEntity
100
AcDbBlockEnd
0
ENDSEC
0
SECTION
2
ENTITIES
0
LWPOLYLINE
5
100
100
AcDbEntity
8
0
100
AcDbPolyline
90
33
70
1
43
0.0
10
-22.02859520172035
20
-3.0296420855722062
42
-0.19891236737965801
10
-20.137084562046333
20
-3.8131314458981915
10
-15.996956501511775
20
-7.9532595064327261
42
0.19891236737965717
10
-13.398339080651205
20
-9.0296420855722026
10
183.85890479827938
20
-9.0296420855722026
42
0.19891236737965726
10
186.45752221913995
20
-7.9532595064327438
10
190.59765027967444
20
-3.8131314458982142
42
-0.19891236737965812
10
192.48916091934845
20
-3.0296420855722008
10
199.85890479827933
20
-3.0296420855722044
42
-0.19891236737965859
10
201.75041543795334
20
-3.8131314458982195
10
205.89054349848789
20
-7.9532595064327332
42
-0.19891236737966042
10
206.67403285881389
20
-9.8447701461067538
10
206.67403285881386
20
-84.414514025037505
42
-0.19891236737965684
10
205.89054349848789
20
-86.306024664711487
10
201.75041543795331
20
-90.44615272524608
42
-0.19891236737965926
10
199.8589047982793
20
-91.229642085572067
10
192.48916091934845
20
-91.229642085572067
42
-0.19891236737965926
10
190.59765027967444
20
-90.44615272524608
10
186.45752221913989
20
-86.306024664711487
42
0.19891236737965803
10
183.8589047982793
20
-85.229642085572053
10
-13.398339080651276
20
-85.229642085572053
42
0.19572211633000866
10
-15.964843047088387
20
-86.274303249929559
42
-2.9736770894678257e-05
10
-15.964928630192802
20
-86.273996793392598
10
-20.137084562046297
20
-90.446152725246023
42
-0.19891236737965107
10
-22.028595201720279
20
-91.229642085572038
10
-29.398339080651198
20
-91.229642085572038
42
-0.19891236737967161
10
-31.289849720325268
20
-90.446152725246023
10
-35.42997778085973
20
-86.306024664711529
42
-0.19891236737964277
10
-36.213467141185738
20
-84.414514025037519
10
-36.21346714118576
20
-9.8447701461067734
42
-0.19891236737964899
10
-35.429977780859808
20
-7.9532595064327793
10
-31.289849720325154
20
-3.8131314458981636
42
-0.19891236737966539
10
-29.398339080651198
20
-3.0296420855721706
0
LWPOLYLINE
5
101
100
AcDbEntity
8
0
100
AcDbPolyline
90
8
70
1
43
0.0
10
122.68610000000007
20
-49.654700000000005
10
109.68610000000007
20
-49.65470000000002
42
0.41421356237311585
10
109.18610000000004
20
-50.154700000000012
10
109.18610000000004
20
-63.154700000000034
42
0.41421356237311585
10
109.68610000000007
20
-63.65470000000002
10
122.68610000000007
20
-63.65470000000002
42
0.41421356237312623
10
123.18610000000007
20
-63.154700000000034
10
123.18610000000007
20
-50.154700000000005
42
0.41421356237308982
0
LWPOLYLINE
5
102
100
AcDbEntity
8
0
100
AcDbPolyline
90
8
70
1
43
0.0
10
37.74860000000006
20
-69.204700000000031
10
37.748600000000046
20
-82.204700000000045
42
0.41421356237313928
10
38.248600000000053
20
-82.704700000000045
10
51.248600000000053
20
-82.704700000000031
42
0.41421356237313667
10
51.74860000000006
20
-82.204700000000031
10
51.74860000000006
20
-69.204700000000031
42
0.41421356237312623
10
51.248600000000089
20
-68.704700000000003
10
38.248600000000046
20
-68.704700000000031
42
0.41421356237298057
0
LWPOLYLINE
5
103
100
AcDbEntity
8
0
100
AcDbPolyline
90
8
70
1
43
0.0
10
-9.3764000000000181
20
-44.604700000000065
42
-0.41421356237314183
10
-9.8764000000000252
20
-44.104700000000044
10
-9.8763999999999985
20
-31.10470000000003
42
-0.41421356237310542
10
-9.3764000000000181
20
-30.60470000000003
10
3.6236000000000246
20
-30.60470000000003
42
-0.41421356237313145
10
4.1236000000000317
20
-31.10470000000003
10
4.1236000000000406
20
-44.104700000000044
42
-0.41421356237312101
10
3.6236000000000246
20
-44.604700000000037
0
LWPOLYLINE
5
104
100
AcDbEntity
8
0
100
AcDbPolyline
90
8
70
1
43
0.0
10
166.04860000000002
20
-82.204700000000003
42
-0.41421356237306384
10
165.54860000000014
20
-82.704700000000017
10
152.54860000000002
20
-82.704700000000031
42
-0.41421356237307422
10
152.04860000000005
20
-82.204700000000031
10
152.04860000000005
20
-69.204700000000017
42
-0.41421356237309503
10
152.54860000000005
20
-68.704700000000031
10
165.54860000000005
20
-68.704700000000031
42
-0.41421356237312623
10
166.04860000000005
20
-69.204700000000017
0
LWPOLYLINE
5
105
100
AcDbEntity
8
0
100
AcDbPolyline
90
8
70
1
43
0.0
10
116.04235000000004
20
-25.054700000000018
10
116.04235000000003
20
-12.054700000000036
42
0.4142135623730534
10
115.54235000000003
20
-11.554700000000029
10
102.54235000000003
20
-11.554700000000029
42
0.41421356237309503
10
102.04235000000003
20
-12.054700000000036
10
102.04235000000003
20
-25.054700000000025
42
0.41421356237312101
10
102.54235000000003
20
-25.554700000000039
10
115.54235000000006
20
-25.554700000000015
42
0.41421356237310025
0
LWPOLYLINE
5
106
100
AcDbEntity
8
0
100
AcDbPolyline
90
8
70
1
43
0.0
10
61.561100000000039
20
-12.054700000000036
42
-0.41421356237309503
10
62.061100000000039
20
-11.554700000000029
10
75.06110000000001
20
-11.554700000000029
42
-0.41421356237312623
10
75.56110000000001
20
-12.054700000000036
10
75.56110000000001
20
-25.054700000000025
42
-0.41421356237312101
10
75.06110000000001
20
-25.554700000000025
10
62.061100000000039
20
-25.554700000000032
42
-0.41421356237311585
10
61.561100000000039
20
-25.054700000000025
0
LWPOLYLINE
5
107
100
AcDbEntity
8
0
100
AcDbPolyline
90
8
70
1
43
0.0
10
4.4111000000000544
20
-12.054700000000036
42
-0.4142135623730534
10
4.9111000000000615
20
-11.554700000000029
10
17.911100000000069
20
-11.554700000000011
42
-0.41421356237310542
10
18.411100000000076
20
-12.054700000000036
10
18.411100000000076
20
-25.054700000000032
42
-0.41421356237300661
10
17.911100000000069
20
-25.554700000000032
10
4.9111000000000615
20
-25.554700000000032
42
-0.41421356237313145
10
4.4111000000000544
20
-25.054700000000032
0
LWPOLYLINE
5
108
100
AcDbEntity
8
0
100
AcDbPolyline
90
8
70
1
43
0.0
10
89.848600000000047
20
-82.204700000000031
42
-0.41421356237310542
10
89.348600000000019
20
-82.704700000000031
10
76.348600000000062
20
-82.704700000000031
42
-0.41421356237311585
10
75.848600000000033
20
-82.204700000000031
10
75.848600000000033
20
-69.204700000000031
42
-0.41421356237308982
10
76.348600000000062
20
-68.704700000000031
10
89.348600000000005
20
-68.704700000000031
42
-0.41421356237304818
10
89.848600000000033
20
-69.204700000000031
0
LWPOLYLINE
5
109
100
AcDbEntity
8
0
100
AcDbPolyline
90
8
70
1
43
0.0
10
13.14860000000003
20
-68.704700000000031
42
-0.41421356237313145
10
13.648600000000037
20
-69.204700000000031
10
13.648600000000037
20
-82.204700000000031
42
-0.41421356237313667
10
13.14860000000003
20
-82.704700000000031
10
0.14860000000002319
20
-82.704700000000031
42
-0.41421356237310542
10
-0.35140000000001947
20
-82.204700000000045
10
-0.35140000000003724
20
-69.204700000000031
42
-0.41421356237306389
10
0.14860000000002316
20
-68.704700000000031
0
LWPOLYLINE
5
110
100
AcDbEntity
8
0
100
AcDbPolyline
90
8
70
1
43
0.0
10
47.773600000000016
20
-44.604700000000022
10
60.773600000000059
20
-44.604700000000022
42
0.41421356237310542
10
61.273600000000066
20
-44.104700000000037
10
61.273600000000059
20
-31.104700000000022
42
0.41421356237310542
10
60.773600000000059
20
-30.604700000000005
10
47.773600000000016
20
-30.604700000000005
42
0.4142135623730378
10
47.273600000000116
20
-31.104700000000022
10
47.27360000000003
20
-44.104700000000037
42
0.41421356237309503
0
LWPOLYLINE
5
111
100
AcDbEntity
8
0
100
AcDbPolyline
90
8
70
1
43
0.0
10
60.123100000000051
20
-26.054700000000011
42
-0.41421356237308982
10
59.623100000000036
20
-26.554700000000011
10
53.623100000000044
20
-26.554700000000011
42
-0.4142135623730222
10
53.123100000000065
20
-26.054700000000011
10
53.123100000000072
20
-12.054700000000036
42
-0.41421356237304302
10
53.623100000000044
20
-11.554700000000011
10
59.623100000000036
20
-11.554700000000029
42
-0.41421356237309503
10
60.123100000000051
20
-12.054700000000036
0
LWPOLYLINE
5
112
100
AcDbEntity
8
0
100
AcDbPolyline
90
8
70
1
43
0.0
10
32.986100000000071
20
-50.15470000000002
42
-0.41421356237303258
10
33.486100000000043
20
-49.65470000000002
10
46.48610000000005
20
-49.65470000000002
42
-0.4142135623732251
10
46.986100000000036
20
-50.154700000000012
10
46.986100000000093
20
-63.154700000000034
42
-0.4142135623730846
10
46.48610000000005
20
-63.654700000000055
10
33.48610000000005
20
-63.654700000000048
42
-0.41421356237310281
10
32.986100000000043
20
-63.154700000000041
0
LWPOLYLINE
5
113
100
AcDbEntity
8
0
100
AcDbPolyline
90
14
70
1
43
0.0
10
100.60435000000005
20
-26.054700000000011
10
100.60435000000007
20
-12.054700000000036
42
0.41421356237311585
10
100.10435000000003
20
-11.554700000000029
10
77.499100000000055
20
-11.554700000000011
42
0.41421356237309503
10
76.999099999999999
20
-12.054700000000036
10
76.999099999999999
20
-26.054700000000011
42
0.41421356237309503
10
77.499100000000055
20
-26.554700000000039
10
83.499100000000027
20
-26.554700000000004
42
0.41421356237311585
10
83.999100000000027
20
-26.054700000000011
10
83.999100000000027
20
-25.554700000000025
10
93.604350000000039
20
-25.554700000000025
10
93.604350000000025
20
-26.054700000000011
42
0.41421356237312101
10
94.104350000000053
20
-26.554700000000039
10
100.10435000000003
20
-26.554700000000004
42
0.41421356237309503
0
LWPOLYLINE
5
114
100
AcDbEntity
8
0
100
AcDbPolyline
90
8
70
1
43
0.0
10
-0.63890000000004221
20
-25.054700000000032
42
-0.41421356237306384
10
-1.1388999999999427
20
-25.554700000000025
10
-14.138899999999985
20
-25.554700000000032
42
-0.4142135623731939
10
-14.638899999999957
20
-25.054700000000032
10
-14.638899999999957
20
-12.054700000000054
42
-0.4142135623730846
10
-14.138899999999985
20
-11.554700000000029
10
-1.1388999999999427
20
-11.554700000000029
42
-0.41421356237310542
10
-0.63889999999993563
20
-12.054700000000054
0
LWPOLYLINE
5
115
100
AcDbEntity
8
0
100
AcDbPolyline
90
8
70
1
43
0.0
10
28.723600000000076
20
-44.604700000000044
42
-0.41421356237317308
10
28.223600000000069
20
-44.104700000000044
10
28.223600000000033
20
-31.10470000000003
42
-0.414213562373069
10
28.723600000000076
20
-30.60470000000003
10
41.723600000000012
20
-30.604700000000022
42
-0.41421356237312623
10
42.223600000000026
20
-31.104700000000022
10
42.22360000000009
20
-44.104700000000037
42
-0.41421356237304302
10
41.723600000000012
20
-44.604700000000022
0
LWPOLYLINE
5
116
100
AcDbEntity
8
0
100
AcDbPolyline
90
8
70
1
43
0.0
10
124.48035000000002
20
-26.054700000000004
42
-0.41421356237313145
10
123.98035000000004
20
-26.554700000000004
10
117.98035000000004
20
-26.554700000000029
42
-0.41421356237310542
10
117.48035000000003
20
-26.054700000000004
10
117.48035000000003
20
-12.054700000000036
42
-0.41421356237309503
10
117.98035000000004
20
-11.554700000000029
10
123.98035000000004
20
-11.554700000000029
42
-0.41421356237307422
10
124.48035000000004
20
-12.054700000000036
0
LWPOLYLINE
5
117
100
AcDbEntity
8
0
100
AcDbPolyline
90
8
70
1
43
0.0
10
188.26735000000008
20
-25.554699999999997
10
201.26735000000002
20
-25.554699999999997
42
0.41421356237311063
10
201.76735000000008
20
-25.054700000000008
10
201.76735000000005
20
-12.054700000000018
42
0.41421356237309503
10
201.26735000000002
20
-11.554700000000011
10
188.26734999999999
20
-11.554700000000011
42
0.41421356237306384
10
187.76735000000005
20
-12.054700000000018
10
187.76735000000005
20
-25.054700000000008
42
0.4142135623730846
0
LWPOLYLINE
5
118
100
AcDbEntity
8
0
100
AcDbPolyline
90
8
70
1
43
0.0
10
98.873600000000039
20
-30.604700000000005
10
85.873600000000039
20
-30.604700000000022
42
0.41421356237305862
10
85.373600000000053
20
-31.104700000000022
10
85.373600000000053
20
-44.104700000000037
42
0.41421356237312101
10
85.873600000000053
20
-44.604700000000051
10
98.873600000000081
20
-44.604700000000015
42
0.41421356237308982
10
99.373600000000067
20
-44.104700000000037
10
99.373600000000096
20
-31.104700000000022
42
0.41421356237310542
0
LWPOLYLINE
5
119
100
AcDbEntity
8
0
100
AcDbPolyline
90
8
70
1
43
0.0
10
166.33610000000004
20
-50.154700000000005
42
-0.41421356237313145
10
166.83610000000004
20
-49.654700000000005
10
179.83610000000004
20
-49.65470000000002
42
-0.41421356237312623
10
180.33610000000007
20
-50.154700000000005
10
180.33610000000007
20
-63.154700000000012
42
-0.41421356237309503
10
179.83610000000004
20
-63.654700000000012
10
166.83610000000004
20
-63.65470000000002
42
-0.41421356237309503
10
166.33610000000004
20
-63.154700000000012
0
LWPOLYLINE
5
120
100
AcDbEntity
8
0
100
AcDbPolyline
90
8
70
1
43
0.0
10
184.59860000000006
20
-68.704700000000003
42
-0.41421356237309503
10
185.09860000000006
20
-69.204700000000017
10
185.09860000000006
20
-82.204700000000003
42
-0.41421356237310542
10
184.59860000000006
20
-82.704700000000031
10
171.59860000000006
20
-82.704700000000031
42
-0.41421356237309503
10
171.09860000000003
20
-82.204700000000031
10
171.09860000000003
20
-69.204700000000017
42
-0.41421356237309503
10
171.59860000000006
20
-68.704700000000003
0
LWPOLYLINE
5
121
100
AcDbEntity
8
0
100
AcDbPolyline
90
8
70
1
43
0.0
10
66.823600000000013
20
-44.604700000000022
10
79.82360000000007
20
-44.604700000000022
42
0.41421356237310542
10
80.323600000000084
20
-44.104700000000037
10
80.323600000000084
20
-31.104700000000022
42
0.41421356237308982
10
79.82360000000007
20
-30.604700000000022
10
66.823600000000013
20
-30.604700000000022
42
0.41421356237312101
10
66.323600000000027
20
-31.104700000000022
10
66.323600000000027
20
-44.104700000000037
42
0.41421356237309503
0
LWPOLYLINE
5
122
100
AcDbEntity
8
0
100
AcDbPolyline
90
8
70
1
43
0.0
10
95.39860000000003
20
-82.704700000000031
42
-0.4142135623730846
10
94.898600000000044
20
-82.204700000000031
10
94.898600000000044
20
-69.204700000000017
42
-0.41421356237310542
10
95.39860000000003
20
-68.704700000000017
10
108.39860000000004
20
-68.704700000000031
42
-0.41421356237310542
10
108.89860000000006
20
-69.204700000000017
10
108.89860000000006
20
-82.204700000000031
42
-0.41421356237309503
10
108.39860000000004
20
-82.704700000000031
0
LWPOLYLINE
5
123
100
AcDbEntity
8
0
100
AcDbPolyline
90
8
70
1
43
0.0
10
90.13610000000007
20
-50.154700000000012
42
-0.41421356237313145
10
90.636100000000084
20
-49.65470000000002
10
103.63610000000006
20
-49.654700000000027
42
-0.41421356237311585
10
104.13610000000004
20
-50.154700000000012
10
104.13610000000004
20
-63.154700000000034
42
-0.41421356237311585
10
103.63610000000006
20
-63.65470000000002
10
90.636100000000084
20
-63.654700000000034
42
-0.41421356237309503
10
90.13610000000007
20
-63.154700000000034
0
LWPOLYLINE
5
124
100
AcDbEntity
8
0
100
AcDbPolyline
90
8
70
1
43
0.0
10
128.23610000000008
20
-50.154700000000005
42
-0.4142135623730846
10
128.73610000000005
20
-49.654700000000027
10
141.73609999999999
20
-49.654700000000005
42
-0.41421356237310025
10
142.23610000000005
20
-50.154700000000005
10
142.23610000000002
20
-63.15470000000002
42
-0.41421356237310025
10
141.73610000000002
20
-63.65470000000002
10
128.73610000000005
20
-63.65470000000002
42
-0.4142135623730846
10
128.23610000000008
20
-63.154700000000034
0
LWPOLYLINE
5
125
100
AcDbEntity
8
0
100
AcDbPolyline
90
8
70
1
43
0.0
10
201.26735000000008
20
-49.654699999999991
42
-0.41421356237309503
10
201.76735000000008
20
-50.154699999999998
10
201.76735000000008
20
-63.154700000000012
42
-0.41421356237309503
10
201.26735000000008
20
-63.654700000000012
10
188.26735000000008
20
-63.65470000000002
42
-0.41421356237309503
10
187.76735000000005
20
-63.154700000000012
10
187.76735000000005
20
-50.154699999999998
42
-0.41421356237308982
10
188.26735000000008
20
-49.654699999999998
0
LWPOLYLINE
5
126
100
AcDbEntity
8
0
100
AcDbPolyline
90
8
70
1
43
0.0
10
185.88610000000003
20
-44.604699999999994
42
-0.41421356237308982
10
185.38610000000006
20
-44.10470000000003
10
185.38610000000006
20
-31.104700000000001
42
-0.41421356237306384
10
185.88610000000003
20
-30.604700000000005
10
198.88610000000006
20
-30.604699999999994
42
-0.41421356237309503
10
199.38610000000008
20
-31.104700000000001
10
199.38610000000008
20
-44.104700000000022
42
-0.41421356237304302
10
198.88610000000014
20
-44.604700000000008
0
LWPOLYLINE
5
127
100
AcDbEntity
8
0
100
AcDbPolyline
90
8
70
1
43
0.0
10
156.02360000000004
20
-30.604700000000005
42
-0.41421356237309503
10
156.52360000000004
20
-31.104700000000012
10
156.52360000000004
20
-44.10470000000003
42
-0.41421356237311063
10
156.02360000000004
20
-44.604700000000015
10
143.02360000000007
20
-44.604700000000008
42
-0.414213562373069
10
142.52360000000007
20
-44.10470000000003
10
142.52360000000007
20
-31.104700000000012
42
-0.41421356237309503
10
143.02360000000004
20
-30.604700000000015
0
LWPOLYLINE
5
128
100
AcDbEntity
8
0
100
AcDbPolyline
90
8
70
1
43
0.0
10
-30.807649999999995
20
-44.604700000000037
10
-17.807649999999917
20
-44.604700000000051
42
0.41421356237307422
10
-17.307649999999946
20
-44.104700000000044
10
-17.307649999999938
20
-31.10470000000003
42
0.41421356237318868
10
-17.807649999999917
20
-30.60470000000003
10
-30.807649999999995
20
-30.604700000000015
42
0.41421356237301699
10
-31.307649999999931
20
-31.10470000000003
10
-31.307650000000002
20
-44.104700000000044
42
0.41421356237316787
0
LWPOLYLINE
5
129
100
AcDbEntity
8
0
100
AcDbPolyline
90
8
70
1
43
0.0
10
147.78610000000003
20
-63.65470000000002
10
160.78610000000003
20
-63.65470000000002
42
0.41421356237308982
10
161.28610000000006
20
-63.15470000000002
10
161.28610000000003
20
-50.154700000000005
42
0.41421356237310542
10
160.78610000000003
20
-49.654700000000005
10
147.78610000000003
20
-49.654700000000005
42
0.41421356237309503
10
147.2861
20
-50.154700000000005
10
147.28610000000003
20
-63.15470000000002
42
0.4142135623730846
0
LWPOLYLINE
5
130
100
AcDbEntity
8
0
100
AcDbPolyline
90
8
70
1
43
0.0
10
84.586100000000044
20
-49.654700000000005
10
71.586100000000073
20
-49.65470000000002
42
0.41421356237308982
10
71.086100000000059
20
-50.154700000000012
10
71.086100000000059
20
-63.154700000000034
42
0.41421356237309503
10
71.586100000000073
20
-63.654700000000027
10
84.586100000000044
20
-63.65470000000002
42
0.41421356237312101
10
85.08610000000003
20
-63.15470000000002
10
85.08610000000003
20
-50.154700000000012
42
0.41421356237310542
0
LWPOLYLINE
5
131
100
AcDbEntity
8
0
100
AcDbPolyline
90
8
70
1
43
0.0
10
204.14860000000004
20
-82.204700000000003
10
204.14860000000004
20
-69.204700000000003
42
0.41421356237308982
10
203.64860000000007
20
-68.704700000000003
10
190.64860000000007
20
-68.704700000000017
42
0.41421356237309503
10
190.14860000000004
20
-69.204700000000017
10
190.14860000000004
20
-82.204700000000003
42
0.41421356237310542
10
190.64860000000007
20
-82.704700000000017
10
203.64860000000004
20
-82.704700000000017
42
0.41421356237309503
0
LWPOLYLINE
5
132
100
AcDbEntity
8
0
100
AcDbPolyline
90
8
70
1
43
0.0
10
-26.045149999999957
20
-82.704700000000031
10
-13.045149999999985
20
-82.704700000000045
42
0.41421356237307422
10
-12.545149999999943
20
-82.204700000000045
10
-12.545149999999952
20
-69.204700000000031
42
0.41421356237319906
10
-13.045149999999985
20
-68.704700000000031
10
-26.045149999999957
20
-68.704700000000003
42
0.41421356237304302
10
-26.545149999999929
20
-69.204700000000031
10
-26.545149999999968
20
-82.204700000000045
42
0.41421356237304302
0
LWPOLYLINE
5
133
100
AcDbEntity
8
0
100
AcDbPolyline
90
14
70
1
43
0.0
10
148.26110000000003
20
-26.054700000000004
10
148.26110000000003
20
-25.554700000000015
10
148.87985000000003
20
-25.554700000000015
42
0.41421356237309503
10
149.37985000000003
20
-25.054700000000018
10
149.37985000000003
20
-12.054700000000018
42
0.41421356237312623
10
148.87985000000006
20
-11.554700000000011
10
135.87985000000006
20
-11.554700000000029
42
0.41421356237311585
10
135.37985
20
-12.054700000000036
10
135.37985000000003
20
-25.054700000000018
42
0.41421356237311585
10
135.87985000000006
20
-25.554700000000004
10
141.26110000000006
20
-25.554700000000015
10
141.26110000000006
20
-26.054700000000004
42
0.41421356237310542
10
141.76110000000003
20
-26.554700000000029
10
147.76110000000003
20
-26.554700000000004
42
0.41421356237313145
0
LWPOLYLINE
5
134
100
AcDbEntity
8
0
100
AcDbPolyline
90
8
70
1
43
0.0
10
-14.926399999999944
20
-63.154700000000041
42
-0.4142135623730222
10
-15.426399999999951
20
-63.654700000000062
10
-28.426399999999923
20
-63.654700000000048
42
-0.4142135623730222
10
-28.926399999999902
20
-63.154700000000048
10
-28.926400000000037
20
-50.15470000000002
42
-0.41421356237309503
10
-28.426399999999923
20
-49.654700000000048
10
-15.426399999999951
20
-49.654700000000041
42
-0.41421356237314705
10
-14.926399999999918
20
-50.15470000000002
0
LWPOLYLINE
5
135
100
AcDbEntity
8
0
100
AcDbPolyline
90
8
70
1
43
0.0
10
56.79860000000005
20
-69.204700000000031
42
-0.41421356237301177
10
57.29860000000005
20
-68.704700000000003
10
70.298600000000064
20
-68.704700000000031
42
-0.41421356237308982
10
70.798600000000079
20
-69.204700000000031
10
70.798600000000079
20
-82.204700000000031
42
-0.41421356237309503
10
70.298600000000064
20
-82.704700000000031
10
57.298600000000057
20
-82.704700000000017
42
-0.41421356237304302
10
56.79860000000005
20
-82.204700000000031
0
LWPOLYLINE
5
136
100
AcDbEntity
8
0
100
AcDbPolyline
90
8
70
1
43
0.0
10
27.936100000000046
20
-63.154700000000034
42
-0.41421356237313667
10
27.436100000000039
20
-63.654700000000034
10
14.436100000000032
20
-63.654700000000027
42
-0.41421356237312623
10
13.936100000000025
20
-63.154700000000041
10
13.936100000000025
20
-50.15470000000002
42
-0.41421356237300661
10
14.436100000000032
20
-49.654700000000027
10
27.436100000000042
20
-49.654700000000048
42
-0.41421356237315488
10
27.936100000000046
20
-50.15470000000002
0
LWPOLYLINE
5
137
100
AcDbEntity
8
0
100
AcDbPolyline
90
8
70
1
43
0.0
10
32.698600000000084
20
-82.204700000000031
42
-0.41421356237312623
10
32.198600000000077
20
-82.704700000000017
10
19.198600000000074
20
-82.704700000000031
42
-0.41421356237314966
10
18.69860000000007
20
-82.204700000000031
10
18.698599999999992
20
-69.204700000000031
42
-0.4142135623730846
10
19.198600000000035
20
-68.704700000000003
10
32.198600000000084
20
-68.704700000000031
42
-0.41421356237312362
10
32.698600000000091
20
-69.204700000000031
0
LWPOLYLINE
5
138
100
AcDbEntity
8
0
100
AcDbPolyline
90
8
70
1
43
0.0
10
8.3861000000000629
20
-49.654700000000041
42
-0.41421356237314705
10
8.8861000000000967
20
-50.15470000000002
10
8.8861000000000701
20
-63.154700000000041
42
-0.4142135623730222
10
8.3861000000000629
20
-63.654700000000062
10
-4.6138999999999442
20
-63.654700000000034
42
-0.41421356237314183
10
-5.1138999999999379
20
-63.154700000000041
10
-5.1138999999999868
20
-50.15470000000002
42
-0.414213562373069
10
-4.6138999999999442
20
-49.654700000000027
0
LWPOLYLINE
5
139
100
AcDbEntity
8
0
100
AcDbPolyline
90
8
70
1
43
0.0
10
-19.688900000000018
20
-25.054700000000032
42
-0.41421356237300139
10
-20.188899999999954
20
-25.554700000000025
10
-33.188899999999997
20
-25.554700000000032
42
-0.4142135623731939
10
-33.688899999999968
20
-25.054700000000032
10
-33.688899999999968
20
-12.054700000000054
42
-0.4142135623730846
10
-33.188899999999997
20
-11.554700000000029
10
-20.188899999999954
20
-11.554700000000029
42
-0.41421356237310542
10
-19.688899999999947
20
-12.054700000000054
0
LWPOLYLINE
5
140
100
AcDbEntity
8
0
100
AcDbPolyline
90
8
70
1
43
0.0
10
52.536100000000019
20
-63.654700000000048
10
65.536100000000033
20
-63.654700000000027
42
0.41421356237308982
10
66.036100000000062
20
-63.154700000000034
10
66.036100000000062
20
-50.154700000000012
42
0.41421356237307422
10
65.536100000000033
20
-49.654700000000005
10
52.536100000000019
20
-49.654699999999998
42
0.41421356237301699
10
52.036100000000083
20
-50.154700000000012
10
52.036100000000033
20
-63.154700000000034
42
0.41421356237314705
0
LWPOLYLINE
5
141
100
AcDbEntity
8
0
100
AcDbPolyline
90
8
70
1
43
0.0
10
104.92360000000002
20
-44.604700000000037
42
-0.41421356237314183
10
104.42360000000002
20
-44.104700000000037
10
104.42360000000001
20
-31.104700000000022
42
-0.41421356237311585
10
104.92360000000002
20
-30.604700000000022
10
117.92360000000005
20
-30.604700000000015
42
-0.41421356237308982
10
118.42360000000006
20
-31.104700000000012
10
118.42360000000006
20
-44.10470000000003
42
-0.41421356237310542
10
117.92360000000005
20
-44.604700000000015
0
LWPOLYLINE
5
142
100
AcDbEntity
8
0
100
AcDbPolyline
90
8
70
1
43
0.0
10
9.1735999999999951
20
-31.10470000000003
10
9.1735999999999862
20
-44.104700000000044
42
0.41421356237311585
10
9.6735999999999578
20
-44.604700000000051
10
22.673600000000036
20
-44.604700000000037
42
0.41421356237312101
10
23.173600000000047
20
-44.104700000000044
10
23.173600000000043
20
-31.10470000000003
42
0.41421356237312884
10
22.67360000000004
20
-30.60470000000003
10
9.6735999999999578
20
-30.60470000000003
42
0.41421356237303258
0
LWPOLYLINE
5
143
100
AcDbEntity
8
0
100
AcDbPolyline
90
8
70
1
43
0.0
10
114.44860000000004
20
-82.704700000000031
42
-0.41421356237309503
10
113.94860000000007
20
-82.204700000000031
10
113.94860000000006
20
-69.204700000000031
42
-0.41421356237308982
10
114.44860000000003
20
-68.704700000000031
10
127.44860000000008
20
-68.704700000000031
42
-0.41421356237310542
10
127.94860000000006
20
-69.204700000000017
10
127.94860000000007
20
-82.204700000000031
42
-0.4142135623730846
10
127.44860000000008
20
-82.704700000000031
0
LWPOLYLINE
5
144
100
AcDbEntity
8
0
100
AcDbPolyline
90
8
70
1
43
0.0
10
137.47360000000006
20
-44.10470000000003
42
-0.4142135623730534
10
136.97360000000006
20
-44.604700000000015
10
123.97360000000006
20
-44.604700000000008
42
-0.41421356237311063
10
123.47360000000008
20
-44.10470000000003
10
123.47360000000006
20
-31.104700000000012
42
-0.41421356237311585
10
123.97360000000006
20
-30.604700000000015
10
136.97360000000006
20
-30.604700000000022
42
-0.41421356237311585
10
137.47360000000006
20
-31.104700000000012
0
LWPOLYLINE
5
145
100
AcDbEntity
8
0
100
AcDbPolyline
90
8
70
1
43
0.0
10
133.49860000000004
20
-82.704700000000017
10
146.49860000000001
20
-82.704700000000017
42
0.41421356237310542
10
146.99860000000004
20
-82.204700000000031
10
146.99860000000004
20
-69.204700000000017
42
0.41421356237309503
10
146.49860000000001
20
-68.704700000000031
10
133.49860000000004
20
-68.704700000000003
42
0.41421356237307422
10
132.99860000000004
20
-69.204700000000017
10
132.99860000000004
20
-82.204700000000031
42
0.4142135623730846
0
LWPOLYLINE
5
146
100
AcDbEntity
8
0
100
AcDbPolyline
90
8
70
1
43
0.0
10
161.57360000000008
20
-12.054700000000018
10
161.57360000000006
20
-25.054700000000018
42
0.41421356237310542
10
162.07360000000006
20
-25.554700000000015
10
175.07360000000006
20
-25.554700000000015
42
0.41421356237309503
10
175.57360000000006
20
-25.054700000000018
10
175.57360000000006
20
-12.054700000000018
42
0.41421356237309503
10
175.07360000000006
20
-11.554700000000011
10
162.0736
20
-11.55470000000002
42
0.4142135623730846
0
LWPOLYLINE
5
147
100
AcDbEntity
8
0
100
AcDbPolyline
90
11
70
1
43
0.0
10
26.961100000000044
20
-12.054700000000036
42
-0.41421356237306384
10
27.461100000000016
20
-11.554700000000047
10
41.723600000000012
20
-11.554700000000029
42
-0.41421356237313667
10
42.223600000000019
20
-12.054700000000036
10
42.22360000000009
20
-25.054700000000025
42
-0.4142135623730534
10
41.723600000000012
20
-25.554700000000032
10
33.961100000000044
20
-25.554700000000032
10
33.961100000000073
20
-26.054700000000022
42
-0.414213562373069
10
33.46110000000003
20
-26.554700000000018
10
27.46110000000002
20
-26.554700000000018
42
-0.41421356237313928
10
26.961100000000016
20
-26.054700000000022
0
LWPOLYLINE
5
148
100
AcDbEntity
8
0
100
AcDbPolyline
90
8
70
1
43
0.0
10
161.57360000000008
20
-31.104700000000012
42
-0.41421356237312623
10
162.07360000000008
20
-30.604700000000015
10
175.07360000000006
20
-30.604700000000005
42
-0.41421356237309503
10
175.57360000000006
20
-31.104700000000012
10
175.57360000000006
20
-44.10470000000003
42
-0.41421356237307944
10
175.07360000000006
20
-44.604700000000015
10
162.07360000000006
20
-44.604700000000022
42
-0.41421356237313145
10
161.57360000000006
20
-44.10470000000003
0
CIRCLE
5
149
100
AcDbEntity
8
0
100
AcDbCircle
10
196.17416091934845
20
-88.479642085572081
30
0
40
1.25
210
0
220
0
230
1
0
CIRCLE
5
150
100
AcDbEntity
8
0
100
AcDbCircle
10
-25.713595201720324
20
-5.7796420855721742
30
0
40
1.25
210
0
220
0
230
1
0
CIRCLE
5
151
100
AcDbEntity
8
0
100
AcDbCircle
10
-25.713339080651224
20
-88.479642085572038
30
0
40
1.25
210
0
220
0
230
1
0
CIRCLE
5
152
100
AcDbEntity
8
0
100
AcDbCircle
10
196.17390479827932
20
-5.7796420855722097
30
0
40
1.25
210
0
220
0
230
1
0
ENDSEC
0
SECTION
2
OBJECTS
0
DICTIONARY
5
C
100
AcDbDictionary
3
ACAD_GROUP
350
D
3
ACAD_MLINESTYLE
350
17
0
DICTIONARY
5
D
100
AcDbDictionary
0
DICTIONARY
5
1A
330
C
100
AcDbDictionary
0
DICTIONARY
5
17
100
AcDbDictionary
0
ENDSEC
0
EOF
