0
SECTION
2
HEADER
9
$INSUNITS
70
4
9
$ACADVER
1
AC1014
9
$HANDSEED
5
FFFF
0
ENDSEC
0
SECTION
2
TABLES
0
TABLE
2
VPORT
5
8
100
AcDbSymbolTable
0
ENDTAB
0
TABLE
2
LTYPE
5
5
100
AcDbSymbolTable
0
LTYPE
5
14
100
AcDbSymbolTableRecord
100
AcDbLinetypeTableRecord
2
BYBLOCK
70
0
0
LTYPE
5
15
100
AcDbSymbolTableRecord
100
AcDbLinetypeTableRecord
2
BYLAYER
70
0
0
ENDTAB
0
TABLE
2
LAYER
5
2
100
AcDbSymbolTable
70
2
0
LAYER
5
50
100
AcDbSymbolTableRecord
100
AcDbLayerTableRecord
2
0
70
0
6
CONTINUOUS
0
ENDTAB
0
TABLE
2
STYLE
5
3
100
AcDbSymbolTable
70
1
0
STYLE
5
11
100
AcDbSymbolTableRecord
100
AcDbTextStyleTableRecord
2
STANDARD
70
0
0
ENDTAB
0
TABLE
2
VIEW
5
6
100
AcDbSymbolTable
70
0
0
ENDTAB
0
TABLE
2
UCS
5
7
100
AcDbSymbolTable
70
0
0
ENDTAB
0
TABLE
2
APPID
5
9
100
AcDbSymbolTable
70
2
0
APPID
5
12
100
AcDbSymbolTableRecord
100
AcDbRegAppTableRecord
2
ACAD
70
0
0
ENDTAB
0
TABLE
2
DIMSTYLE
5
A
100
AcDbSymbolTable
70
1
0
ENDTAB
0
TABLE
2
BLOCK_RECORD
5
1
100
AcDbSymbolTable
70
1
0
BLOCK_RECORD
5
1F
100
AcDbSymbolTableRecord
100
AcDbBlockTableRecord
2
*MODEL_SPACE
0
BLOCK_RECORD
5
1B
100
AcDbSymbolTableRecord
100
AcDbBlockTableRecord
2
*PAPER_SPACE
0
ENDTAB
0
ENDSEC
0
SECTION
2
BLOCKS
0
BLOCK
5
20
100
AcDbEntity
100
AcDbBlockBegin
2
*MODEL_SPACE
0
ENDBLK
5
21
100
AcDbEntity
100
AcDbBlockEnd
0
BLOCK
5
1C
100
AcDbEntity
100
AcDbBlockBegin
2
*PAPER_SPACE
0
ENDBLK
5
1D
100
AcDbEntity
100
AcDbBlockEnd
0
ENDSEC
0
SECTION
2
ENTITIES
0
LWPOLYLINE
5
100
100
AcDbEntity
8
0
100
AcDbPolyline
90
8
70
1
43
0.0
10
-15.442938999999996
20
15.082839999999997
10
-252.83023200000002
20
15.082839999999996
42
-0.41421356237309176
10
-255.83023199999997
20
18.082839999999969
10
-255.830232
20
88.282740999999959
42
-0.41421356237308982
10
-252.83023200000002
20
91.282741000000001
10
-15.442939000000006
20
91.282741000000001
42
-0.4142135623730927
10
-12.442939000000022
20
88.282741000000001
10
-12.442939000000004
20
18.082840000000001
42
-0.41421356237309465
0
CIRCLE
5
101
100
AcDbEntity
8
0
100
AcDbCircle
10
-223.33064000000007
20
31.810680000000019
30
0
40
2.5499999999999901
210
-0
220
0
230
1
0
CIRCLE
5
102
100
AcDbEntity
8
0
100
AcDbCircle
10
-89.441559999999996
20
80.433299999999988
30
0
40
2.5500000000000078
210
-0
220
0
230
1
0
LWPOLYLINE
5
103
100
AcDbEntity
8
0
100
AcDbPolyline
90
8
70
1
43
0.0
10
-43.798600000000008
20
56.204699999999988
10
-43.798600000000008
20
66.665906532863232
42
2.7771201697621111
10
-44.954754967811532
20
69.704700000000003
10
-57.298600000000008
20
69.704700000000003
42
0.41421356237310542
10
-57.7986
20
69.204700000000003
10
-57.7986
20
56.204699999999988
42
0.41421356237310542
10
-57.298600000000008
20
55.704700000000003
10
-44.298600000000008
20
55.704699999999995
42
0.41421356237309503
0
CIRCLE
5
104
100
AcDbEntity
8
0
100
AcDbCircle
10
-195.02060000000003
20
80.632200000000012
30
0
40
2.5499999999999901
210
0
220
0
230
1
0
LWPOLYLINE
5
105
100
AcDbEntity
8
0
100
AcDbPolyline
90
8
70
1
43
0.0
10
-58.586100000000002
20
50.654700000000005
42
-0.41421356237310542
10
-58.086100000000009
20
50.154700000000005
10
-58.086100000000016
20
37.154699999999998
42
-0.41421356237309764
10
-58.586100000000002
20
36.654699999999998
10
-71.586100000000016
20
36.654699999999998
42
-0.41421356237309764
10
-72.086100000000016
20
37.154699999999998
10
-72.086100000000016
20
50.154700000000005
42
-0.41421356237310542
10
-71.586100000000016
20
50.654700000000005
0
LWPOLYLINE
5
106
100
AcDbEntity
8
0
100
AcDbPolyline
90
8
70
1
43
0.0
10
-18.104850000000003
20
50.654700000000005
42
-0.41421356237309631
10
-17.604850000000003
20
50.154700000000005
10
-17.604850000000003
20
37.154699999999998
42
-0.41421356237309631
10
-18.104850000000003
20
36.654699999999998
10
-31.104850000000006
20
36.654699999999998
42
-0.41421356237309503
10
-31.604850000000006
20
37.154699999999998
10
-31.60485000000001
20
50.154700000000005
42
-0.41421356237309764
10
-31.104850000000006
20
50.654700000000005
0
LWPOLYLINE
5
107
100
AcDbEntity
8
0
100
AcDbPolyline
90
8
70
1
43
0.0
10
-76.348600000000005
20
55.704699999999995
42
-0.41421356237309503
10
-76.848600000000005
20
56.204699999999988
10
-76.848600000000005
20
69.204700000000003
42
-0.41421356237309503
10
-76.348600000000005
20
69.704700000000003
10
-63.348600000000005
20
69.704700000000003
42
-0.41421356237310542
10
-62.848600000000012
20
69.204700000000003
10
-62.848600000000012
20
56.204699999999988
42
-0.41421356237310542
10
-63.348600000000005
20
55.704699999999995
0
LWPOLYLINE
5
108
100
AcDbEntity
8
0
100
AcDbPolyline
90
8
70
1
43
0.0
10
-19.9861
20
56.204699999999988
42
-0.41421356237309764
10
-20.486100000000004
20
55.704699999999995
10
-33.486100000000008
20
55.704700000000003
42
-0.41421356237309764
10
-33.986100000000008
20
56.204699999999988
10
-33.986100000000008
20
69.204700000000003
42
-0.41421356237309764
10
-33.486100000000008
20
69.704700000000003
10
-20.486100000000004
20
69.704700000000003
42
-0.41421356237309764
10
-19.986100000000004
20
69.204700000000003
0
LWPOLYLINE
5
109
100
AcDbEntity
8
0
100
AcDbPolyline
90
8
70
1
43
0.0
10
-237.17985000000002
20
69.704700000000003
42
-0.41421356237313667
10
-236.67985000000002
20
69.204700000000003
10
-236.67984999999999
20
56.204699999999988
42
-0.41421356237307422
10
-237.17985000000002
20
55.704699999999995
10
-250.17985000000004
20
55.704700000000003
42
-0.41421356237312623
10
-250.67985000000004
20
56.204699999999988
10
-250.67984999999999
20
69.204700000000003
42
-0.4142135623730222
10
-250.17985000000004
20
69.704700000000003
0
LWPOLYLINE
5
110
100
AcDbEntity
8
0
100
AcDbPolyline
90
8
70
1
43
0.0
10
-77.636100000000013
20
50.654699999999991
10
-90.636099999999999
20
50.654699999999991
42
0.41421356237310542
10
-91.136100000000013
20
50.154700000000005
10
-91.136100000000013
20
37.154699999999998
42
0.41421356237310542
10
-90.636099999999999
20
36.654699999999998
10
-77.636100000000013
20
36.654699999999998
42
0.41421356237309503
10
-77.136100000000013
20
37.154699999999998
10
-77.136100000000013
20
50.154700000000005
42
0.41421356237309503
0
LWPOLYLINE
5
111
100
AcDbEntity
8
0
100
AcDbPolyline
90
14
70
1
43
0.0
10
-78.111100000000008
20
74.7547
10
-78.111100000000008
20
74.254700000000014
42
0.41421356237310542
10
-77.611100000000008
20
73.7547
10
-71.611100000000008
20
73.754700000000014
42
0.41421356237310542
10
-71.111100000000008
20
74.254700000000014
10
-71.111100000000008
20
74.7547
10
-70.492350000000016
20
74.7547
42
0.41421356237310542
10
-69.992350000000016
20
75.2547
10
-69.992350000000016
20
88.254699999999985
42
0.41421356237310542
10
-70.492350000000016
20
88.7547
10
-83.492350000000002
20
88.7547
42
0.41421356237309503
10
-83.992350000000016
20
88.254699999999985
10
-83.992350000000016
20
75.2547
42
0.41421356237310542
10
-83.492350000000002
20
74.7547
0
LWPOLYLINE
5
112
100
AcDbEntity
8
0
100
AcDbPolyline
90
8
70
1
43
0.0
10
-245.41735000000003
20
17.604700000000015
42
-0.41421356237312235
10
-245.91735000000003
20
18.104699999999998
10
-245.91735
20
31.104699999999998
42
-0.41421356237302737
10
-245.41735000000003
20
31.604700000000001
10
-232.41735000000003
20
31.604700000000001
42
-0.41421356237313406
10
-231.91735
20
31.104699999999998
10
-231.91734999999997
20
18.104699999999998
42
-0.41421356237307683
10
-232.41735000000003
20
17.604699999999998
0
LWPOLYLINE
5
113
100
AcDbEntity
8
0
100
AcDbPolyline
90
8
70
1
43
0.0
10
-147.7861
20
36.654699999999998
42
-0.41421356237309243
10
-148.2861
20
37.154699999999998
10
-148.2861
20
50.154700000000005
42
-0.41421356237310542
10
-147.7861
20
50.654700000000005
10
-134.78610000000003
20
50.65470000000002
42
-0.41421356237310025
10
-134.28610000000003
20
50.154700000000005
10
-134.28610000000003
20
37.154699999999998
42
-0.41421356237310542
10
-134.78610000000003
20
36.654699999999998
0
LWPOLYLINE
5
114
100
AcDbEntity
8
0
100
AcDbPolyline
90
8
70
1
43
0.0
10
-205.43610000000004
20
50.154700000000005
10
-205.43610000000004
20
37.154699999999998
42
0.41421356237310025
10
-204.93610000000004
20
36.654699999999991
10
-191.93610000000004
20
36.654699999999998
42
0.41421356237307683
10
-191.43610000000001
20
37.154699999999998
10
-191.43610000000001
20
50.154700000000005
42
0.41421356237313667
10
-191.93610000000004
20
50.654699999999991
10
-204.93610000000004
20
50.654700000000005
42
0.4142135623730222
0
LWPOLYLINE
5
115
100
AcDbEntity
8
0
100
AcDbPolyline
90
8
70
1
43
0.0
10
-239.56110000000001
20
88.754700000000014
42
-0.41421356237310542
10
-239.06110000000001
20
88.254699999999985
10
-239.06110000000007
20
75.2547
42
-0.4142135623730222
10
-239.56110000000001
20
74.7547
10
-252.56110000000004
20
74.7547
42
-0.41421356237313667
10
-253.06110000000004
20
75.2547
10
-253.06110000000004
20
88.254699999999985
42
-0.4142135623730534
10
-252.56110000000004
20
88.7547
0
LWPOLYLINE
5
116
100
AcDbEntity
8
0
100
AcDbPolyline
90
8
70
1
43
0.0
10
-15.723600000000005
20
31.604699999999994
42
-0.41421356237309243
10
-15.223600000000005
20
31.104699999999998
10
-15.223600000000005
20
18.104699999999998
42
-0.41421356237308982
10
-15.723600000000005
20
17.604699999999998
10
-28.723600000000005
20
17.604699999999994
42
-0.41421356237309243
10
-29.223600000000005
20
18.104699999999998
10
-29.223600000000005
20
31.104699999999998
42
-0.41421356237309764
10
-28.723600000000005
20
31.604700000000001
0
LWPOLYLINE
5
117
100
AcDbEntity
8
0
100
AcDbPolyline
90
8
70
1
43
0.0
10
-248.29860000000008
20
50.154700000000005
42
-0.41421356237307422
10
-247.79860000000002
20
50.654700000000005
10
-234.79860000000002
20
50.654699999999991
42
-0.41421356237312623
10
-234.29860000000002
20
50.154700000000005
10
-234.29860000000002
20
37.154699999999998
42
-0.41421356237304563
10
-234.79860000000002
20
36.654699999999998
10
-247.79860000000002
20
36.654699999999998
42
-0.41421356237313145
10
-248.29860000000002
20
37.154699999999998
0
LWPOLYLINE
5
118
100
AcDbEntity
8
0
100
AcDbPolyline
90
8
70
1
43
0.0
10
-162.5736
20
31.104699999999998
42
-0.41421356237302737
10
-162.0736
20
31.604700000000001
10
-149.0736
20
31.604700000000005
42
-0.41421356237309503
10
-148.5736
20
31.104699999999998
10
-148.5736
20
18.104699999999998
42
-0.41421356237309503
10
-149.0736
20
17.604699999999998
10
-162.0736
20
17.604700000000015
42
-0.41421356237312235
10
-162.57360000000003
20
18.104699999999998
0
LWPOLYLINE
5
119
100
AcDbEntity
8
0
100
AcDbPolyline
90
8
70
1
43
0.0
10
-167.33609999999999
20
50.154700000000005
42
-0.4142135623730222
10
-166.83610000000002
20
50.654700000000005
10
-153.83610000000002
20
50.65470000000002
42
-0.41421356237310025
10
-153.33609999999999
20
50.154700000000005
10
-153.33609999999999
20
37.154699999999998
42
-0.41421356237310542
10
-153.83610000000002
20
36.654699999999998
10
-166.83610000000002
20
36.654699999999984
42
-0.41421356237310025
10
-167.33610000000002
20
37.154699999999998
0
LWPOLYLINE
5
120
100
AcDbEntity
8
0
100
AcDbPolyline
90
8
70
1
43
0.0
10
-200.17359999999999
20
17.604699999999998
42
-0.41421356237313273
10
-200.67360000000002
20
18.104699999999998
10
-200.67360000000005
20
31.104699999999998
42
-0.41421356237307944
10
-200.17359999999999
20
31.604700000000001
10
-187.17360000000002
20
31.604700000000001
42
-0.41421356237313406
10
-186.67360000000002
20
31.104699999999998
10
-186.67359999999999
20
18.104699999999998
42
-0.41421356237307683
10
-187.17360000000002
20
17.604699999999998
0
LWPOLYLINE
5
121
100
AcDbEntity
8
0
100
AcDbPolyline
90
11
70
1
43
0.0
10
-185.4111
20
74.254700000000014
42
-0.41421356237307422
10
-185.91110000000003
20
73.754700000000014
10
-191.91110000000003
20
73.754700000000014
42
-0.41421356237312623
10
-192.41110000000003
20
74.254700000000014
10
-192.41109999999998
20
88.254699999999985
42
-0.4142135623730222
10
-191.91110000000003
20
88.7547
10
-177.64860000000002
20
88.7547
42
-0.41421356237313667
10
-177.14860000000002
20
88.254699999999985
10
-177.14859999999999
20
75.2547
42
-0.41421356237307422
10
-177.64860000000002
20
74.7547
10
-185.41110000000003
20
74.7547
0
LWPOLYLINE
5
122
100
AcDbEntity
8
0
100
AcDbPolyline
90
8
70
1
43
0.0
10
-210.19860000000006
20
69.204700000000003
10
-210.19860000000006
20
56.204699999999988
42
0.41421356237312623
10
-209.69860000000006
20
55.704699999999988
10
-196.69860000000003
20
55.704699999999995
42
0.41421356237307422
10
-196.19860000000003
20
56.204699999999988
10
-196.19860000000003
20
69.204700000000003
42
0.41421356237313667
10
-196.69860000000003
20
69.704700000000003
10
-209.69860000000006
20
69.704700000000003
42
0.4142135623730222
0
LWPOLYLINE
5
123
100
AcDbEntity
8
0
100
AcDbPolyline
90
8
70
1
43
0.0
10
-95.898600000000016
20
69.204700000000003
10
-95.898600000000016
20
56.204699999999988
42
0.41421356237310025
10
-95.398600000000016
20
55.704700000000003
10
-82.398600000000002
20
55.704699999999995
42
0.41421356237310542
10
-81.898600000000016
20
56.204699999999988
10
-81.898599999999988
20
69.204700000000003
42
0.41421356237310542
10
-82.398600000000002
20
69.704700000000003
10
-95.398600000000016
20
69.704700000000003
42
0.41421356237310542
0
LWPOLYLINE
5
124
100
AcDbEntity
8
0
100
AcDbPolyline
90
8
70
1
43
0.0
10
-114.44860000000003
20
55.704699999999988
10
-101.44860000000001
20
55.704700000000003
42
0.41421356237310542
10
-100.9486
20
56.204699999999988
10
-100.9486
20
69.204700000000003
42
0.41421356237310025
10
-101.44860000000001
20
69.704700000000003
10
-114.44860000000003
20
69.704700000000003
42
0.41421356237310542
10
-114.94860000000003
20
69.204700000000003
10
-114.94860000000003
20
56.204699999999988
42
0.41421356237310025
0
LWPOLYLINE
5
125
100
AcDbEntity
8
0
100
AcDbPolyline
90
8
70
1
43
0.0
10
-91.423599999999993
20
18.104699999999998
42
-0.41421356237309503
10
-91.923600000000008
20
17.604699999999998
10
-104.92360000000002
20
17.60469999999999
42
-0.41421356237309503
10
-105.42360000000002
20
18.104699999999998
10
-105.42360000000002
20
31.104699999999998
42
-0.41421356237310802
10
-104.92360000000002
20
31.604700000000001
10
-91.923600000000008
20
31.604699999999994
42
-0.41421356237310802
10
-91.423599999999993
20
31.104699999999998
0
LWPOLYLINE
5
126
100
AcDbEntity
8
0
100
AcDbPolyline
90
8
70
1
43
0.0
10
-72.87360000000001
20
31.604699999999998
42
-0.41421356237309503
10
-72.37360000000001
20
31.104699999999998
10
-72.37360000000001
20
18.104699999999998
42
-0.4142135623730937
10
-72.87360000000001
20
17.604699999999998
10
-85.87360000000001
20
17.604700000000008
42
-0.41421356237310542
10
-86.37360000000001
20
18.104699999999998
10
-86.37360000000001
20
31.104699999999998
42
-0.41421356237310802
10
-85.87360000000001
20
31.604700000000001
0
LWPOLYLINE
5
127
100
AcDbEntity
8
0
100
AcDbPolyline
90
8
70
1
43
0.0
10
-57.798599999999993
20
88.254699999999985
42
-0.41421356237310542
10
-57.298600000000008
20
88.7547
10
-44.298600000000008
20
88.7547
42
-0.41421356237308982
10
-43.798600000000008
20
88.254699999999985
10
-43.798600000000008
20
75.2547
42
-0.41421356237309503
10
-44.298600000000008
20
74.7547
10
-57.298600000000008
20
74.7547
42
-0.41421356237310542
10
-57.7986
20
75.2547
0
LWPOLYLINE
5
128
100
AcDbEntity
8
0
100
AcDbPolyline
90
8
70
1
43
0.0
10
-210.98610000000002
20
50.654699999999991
42
-0.41421356237312623
10
-210.48609999999999
20
50.154700000000005
10
-210.48609999999999
20
37.154699999999998
42
-0.41421356237304563
10
-210.98610000000002
20
36.654699999999998
10
-223.98610000000002
20
36.654699999999998
42
-0.41421356237313145
10
-224.48610000000002
20
37.154699999999998
10
-224.48610000000005
20
50.154700000000005
42
-0.41421356237307422
10
-223.98610000000002
20
50.654700000000005
0
LWPOLYLINE
5
129
100
AcDbEntity
8
0
100
AcDbPolyline
90
8
70
1
43
0.0
10
-103.32985000000001
20
75.2547
42
-0.41421356237310542
10
-103.82985000000002
20
74.7547
10
-116.82985000000002
20
74.754699999999985
42
-0.41421356237310025
10
-117.32985000000002
20
75.2547
10
-117.32985000000002
20
88.254699999999985
42
-0.41421356237309503
10
-116.82985000000002
20
88.7547
10
-103.82985000000002
20
88.7547
42
-0.41421356237309503
10
-103.32985000000001
20
88.254699999999985
0
LWPOLYLINE
5
130
100
AcDbEntity
8
0
100
AcDbPolyline
90
8
70
1
43
0.0
10
-96.18610000000001
20
37.154699999999998
10
-96.18610000000001
20
50.154700000000005
42
0.41421356237310025
10
-96.68610000000001
20
50.654700000000012
10
-109.68610000000001
20
50.654700000000005
42
0.41421356237310542
10
-110.18610000000002
20
50.154700000000005
10
-110.18610000000002
20
37.154699999999998
42
0.41421356237309243
10
-109.68610000000001
20
36.654699999999998
10
-96.68610000000001
20
36.654699999999998
42
0.41421356237310542
0
LWPOLYLINE
5
131
100
AcDbEntity
8
0
100
AcDbPolyline
90
8
70
1
43
0.0
10
-228.74860000000007
20
55.704699999999988
10
-215.74860000000004
20
55.704700000000003
42
0.41421356237307422
10
-215.24860000000004
20
56.204699999999988
10
-215.24860000000004
20
69.204700000000003
42
0.41421356237313667
10
-215.74860000000004
20
69.704700000000003
10
-228.74860000000007
20
69.704700000000003
42
0.4142135623730222
10
-229.24860000000007
20
69.204700000000003
10
-229.24860000000007
20
56.204699999999988
42
0.41421356237312623
0
LWPOLYLINE
5
132
100
AcDbEntity
8
0
100
AcDbPolyline
90
8
70
1
43
0.0
10
-157.81110000000001
20
88.254699999999985
10
-157.81110000000001
20
75.2547
42
0.41421356237310025
10
-157.31110000000001
20
74.7547
10
-144.31110000000004
20
74.7547
42
0.41421356237310542
10
-143.81110000000004
20
75.2547
10
-143.81110000000004
20
88.254699999999985
42
0.41421356237309503
10
-144.31110000000004
20
88.7547
10
-157.31110000000001
20
88.7547
42
0.41421356237309503
0
LWPOLYLINE
5
133
100
AcDbEntity
8
0
100
AcDbPolyline
90
8
70
1
43
0.0
10
-168.12360000000001
20
31.604700000000005
10
-181.12360000000001
20
31.604700000000001
42
0.41421356237302737
10
-181.62360000000004
20
31.104699999999998
10
-181.62360000000004
20
18.104699999999998
42
0.41421356237312235
10
-181.12360000000001
20
17.604699999999998
10
-168.12360000000001
20
17.604699999999998
42
0.41421356237307683
10
-167.62360000000001
20
18.104699999999998
10
-167.62360000000001
20
31.104699999999998
42
0.41421356237313406
0
LWPOLYLINE
5
134
100
AcDbEntity
8
0
100
AcDbPolyline
90
8
70
1
43
0.0
10
-201.46109999999999
20
88.7547
10
-214.46110000000002
20
88.7547
42
0.4142135623730534
10
-214.96110000000002
20
88.254699999999985
10
-214.96110000000002
20
75.2547
42
0.41421356237313667
10
-214.46110000000002
20
74.7547
10
-201.46109999999999
20
74.7547
42
0.4142135623730222
10
-200.96109999999999
20
75.2547
10
-200.96109999999999
20
88.254699999999985
42
0.41421356237310542
0
LWPOLYLINE
5
135
100
AcDbEntity
8
0
100
AcDbPolyline
90
8
70
1
43
0.0
10
-66.823600000000013
20
17.604699999999994
42
-0.41421356237309764
10
-67.323600000000013
20
18.104699999999998
10
-67.323600000000013
20
31.104699999999998
42
-0.41421356237309503
10
-66.823600000000013
20
31.604700000000001
10
-53.823599999999999
20
31.604700000000001
42
-0.41421356237309764
10
-53.323600000000006
20
31.104699999999998
10
-53.323600000000006
20
18.104699999999998
42
-0.41421356237309631
10
-53.823599999999999
20
17.604699999999998
0
LWPOLYLINE
5
136
100
AcDbEntity
8
0
100
AcDbPolyline
90
8
70
1
43
0.0
10
-234.01110000000003
20
88.254699999999985
42
-0.4142135623730534
10
-233.51110000000003
20
88.7547
10
-220.5111
20
88.754700000000014
42
-0.41421356237310542
10
-220.0111
20
88.254699999999985
10
-220.01110000000006
20
75.2547
42
-0.4142135623730222
10
-220.5111
20
74.7547
10
-233.51110000000003
20
74.7547
42
-0.41421356237313667
10
-234.01110000000003
20
75.2547
0
LWPOLYLINE
5
137
100
AcDbEntity
8
0
100
AcDbPolyline
90
8
70
1
43
0.0
10
-130.02360000000004
20
31.604700000000005
42
-0.41421356237309503
10
-129.52360000000002
20
31.104699999999998
10
-129.52360000000002
20
18.104699999999998
42
-0.41421356237309503
10
-130.02360000000004
20
17.604699999999998
10
-143.02359999999999
20
17.60469999999999
42
-0.41421356237309503
10
-143.52360000000002
20
18.104699999999998
10
-143.52360000000002
20
31.104699999999998
42
-0.41421356237310802
10
-143.02359999999999
20
31.604700000000001
0
LWPOLYLINE
5
138
100
AcDbEntity
8
0
100
AcDbPolyline
90
8
70
1
43
0.0
10
-186.3861
20
50.154700000000005
42
-0.4142135623730222
10
-185.88610000000003
20
50.654700000000005
10
-172.88610000000003
20
50.654700000000012
42
-0.41421356237313667
10
-172.3861
20
50.154700000000005
10
-172.38609999999997
20
37.154699999999998
42
-0.41421356237307683
10
-172.88610000000003
20
36.654699999999998
10
-185.88610000000003
20
36.654699999999984
42
-0.41421356237310025
10
-186.38610000000003
20
37.154699999999998
0
LWPOLYLINE
5
139
100
AcDbEntity
8
0
100
AcDbPolyline
90
8
70
1
43
0.0
10
-159.7491
20
88.7547
42
-0.41421356237309503
10
-159.2491
20
88.254699999999985
10
-159.2491
20
74.254700000000014
42
-0.41421356237310542
10
-159.7491
20
73.754700000000014
10
-165.74910000000003
20
73.754700000000014
42
-0.41421356237312623
10
-166.24910000000003
20
74.254700000000014
10
-166.2491
20
88.254699999999985
42
-0.4142135623730222
10
-165.74910000000003
20
88.7547
0
LWPOLYLINE
5
140
100
AcDbEntity
8
0
100
AcDbPolyline
90
8
70
1
43
0.0
10
-219.72360000000006
20
31.104699999999998
10
-219.72360000000006
20
18.104699999999998
42
0.41421356237312235
10
-219.22360000000003
20
17.604699999999998
10
-206.22360000000003
20
17.604699999999998
42
0.41421356237307683
10
-205.72360000000003
20
18.104699999999998
10
-205.72360000000003
20
31.104699999999998
42
0.41421356237313406
10
-206.22360000000003
20
31.604700000000001
10
-219.22360000000003
20
31.604700000000001
42
0.41421356237302737
0
LWPOLYLINE
5
141
100
AcDbEntity
8
0
100
AcDbPolyline
90
14
70
1
43
0.0
10
-119.26785000000002
20
88.7547
42
-0.41421356237309503
10
-118.76785000000001
20
88.254699999999985
10
-118.76785000000001
20
74.254700000000014
42
-0.41421356237310542
10
-119.26785000000002
20
73.754700000000014
10
-125.26785000000001
20
73.754699999999985
42
-0.41421356237310025
10
-125.76785000000001
20
74.254700000000014
10
-125.76785000000001
20
74.7547
10
-135.37310000000002
20
74.7547
10
-135.37310000000002
20
74.254700000000014
42
-0.41421356237310542
10
-135.87310000000002
20
73.754700000000014
10
-141.87309999999999
20
73.754699999999985
42
-0.41421356237310025
10
-142.37310000000002
20
74.254700000000014
10
-142.37310000000002
20
88.254699999999985
42
-0.41421356237309503
10
-141.87309999999999
20
88.7547
0
LWPOLYLINE
5
142
100
AcDbEntity
8
0
100
AcDbPolyline
90
8
70
1
43
0.0
10
-171.59860000000003
20
55.704700000000003
42
-0.41421356237312623
10
-172.09860000000003
20
56.204699999999988
10
-172.09859999999998
20
69.204700000000003
42
-0.4142135623730222
10
-171.59860000000003
20
69.704700000000003
10
-158.5986
20
69.704700000000017
42
-0.41421356237310025
10
-158.0986
20
69.204700000000003
10
-158.0986
20
56.204699999999988
42
-0.41421356237310542
10
-158.5986
20
55.704699999999995
0
LWPOLYLINE
5
143
100
AcDbEntity
8
0
100
AcDbPolyline
90
8
70
1
43
0.0
10
-177.64860000000002
20
69.704700000000003
42
-0.41421356237313667
10
-177.14860000000002
20
69.204700000000003
10
-177.14859999999999
20
56.204699999999988
42
-0.41421356237307422
10
-177.64860000000002
20
55.704699999999995
10
-190.64859999999999
20
55.704699999999988
42
-0.41421356237313667
10
-191.14859999999999
20
56.204699999999988
10
-191.14860000000004
20
69.204700000000003
42
-0.41421356237307422
10
-190.64859999999999
20
69.704700000000003
0
LWPOLYLINE
5
144
100
AcDbEntity
8
0
100
AcDbPolyline
90
8
70
1
43
0.0
10
-120.49860000000002
20
69.704700000000017
42
-0.41421356237310025
10
-119.99860000000001
20
69.204700000000003
10
-119.99860000000001
20
56.204699999999988
42
-0.41421356237310542
10
-120.49860000000002
20
55.704699999999995
10
-133.49860000000001
20
55.704699999999974
42
-0.41421356237310025
10
-133.99860000000001
20
56.204699999999988
10
-133.99860000000001
20
69.204700000000003
42
-0.41421356237310542
10
-133.49860000000001
20
69.704700000000003
0
LWPOLYLINE
5
145
100
AcDbEntity
8
0
100
AcDbPolyline
90
8
70
1
43
0.0
10
-17.604849999999999
20
75.2547
42
-0.41421356237309764
10
-18.104850000000003
20
74.7547
10
-31.104850000000006
20
74.754700000000014
42
-0.41421356237309764
10
-31.604850000000006
20
75.2547
10
-31.604849999999995
20
88.254699999999985
42
-0.41421356237310542
10
-31.104850000000006
20
88.7547
10
-18.104850000000003
20
88.7547
42
-0.41421356237309243
10
-17.604850000000003
20
88.254699999999985
0
LWPOLYLINE
5
146
100
AcDbEntity
8
0
100
AcDbPolyline
90
8
70
1
43
0.0
10
-101.89185000000002
20
88.254699999999985
10
-101.89185000000002
20
74.254700000000014
42
0.41421356237310025
10
-101.39185000000001
20
73.7547
10
-95.391850000000005
20
73.754700000000014
42
0.41421356237310542
10
-94.891850000000034
20
74.254700000000014
10
-94.891849999999991
20
88.254699999999985
42
0.41421356237309503
10
-95.391850000000005
20
88.7547
10
-101.39185000000001
20
88.7547
42
0.41421356237309503
0
LWPOLYLINE
5
147
100
AcDbEntity
8
0
100
AcDbPolyline
90
10
70
1
43
0.0
10
-150.45980652686814
20
55.704700000000003
10
-139.54859999999999
20
55.704700000000003
42
0.41421356237310542
10
-139.04859999999999
20
56.204699999999988
10
-139.04859999999999
20
69.204700000000003
42
0.41421356237310025
10
-139.54859999999999
20
69.704700000000003
10
-152.54860000000002
20
69.704700000000003
42
0.41421356237310542
10
-153.04860000000002
20
69.204700000000003
10
-153.04860000000002
20
56.204699999999988
42
0.41421356237310025
10
-152.54860000000002
20
55.704700000000003
10
-151.14619347313192
20
55.704700000000003
42
14.79282211771279
0
LWPOLYLINE
5
148
100
AcDbEntity
8
0
100
AcDbPolyline
90
20
70
1
43
0.0
10
-44.432200548545936
20
31.604699999999998
10
-47.773600000000009
20
31.604700000000001
42
0.41421356237308721
10
-48.273600000000002
20
31.104699999999998
10
-48.273600000000002
20
18.104699999999998
42
0.41421356237309503
10
-47.773600000000009
20
17.604700000000001
10
-34.773600000000002
20
17.604699999999998
42
0.41421356237309243
10
-34.273600000000009
20
18.104699999999998
10
-34.273600000000009
20
31.104699999999998
42
0.41421356237309503
10
-34.773600000000002
20
31.604699999999998
10
-43.702999451454062
20
31.604699999999998
42
0.86886891927208432
10
-43.720017549349834
20
36.654699999999998
10
-39.536100000000005
20
36.654699999999998
42
0.41421356237309503
10
-39.036100000000005
20
37.154699999999998
10
-39.036100000000005
20
50.154700000000005
42
0.41421356237309764
10
-39.536100000000005
20
50.654699999999991
10
-52.536100000000005
20
50.654700000000005
42
0.41421356237310542
10
-53.036100000000005
20
50.154700000000005
10
-53.036100000000005
20
37.154699999999998
42
0.41421356237308204
10
-52.536100000000005
20
36.654699999999998
10
-44.415182450650178
20
36.654699999999998
42
0.86886891927208432
0
LWPOLYLINE
5
149
100
AcDbEntity
8
0
100
AcDbPolyline
90
20
70
1
43
0.0
10
-120.62379517121946
20
31.604700000000001
10
-123.97360000000003
20
31.604700000000001
42
0.41421356237310802
10
-124.47360000000003
20
31.104699999999998
10
-124.47360000000003
20
18.104699999999998
42
0.41421356237309503
10
-123.97360000000003
20
17.604699999999998
10
-110.97360000000002
20
17.604699999999998
42
0.41421356237309503
10
-110.4736
20
18.104699999999998
10
-110.4736
20
31.104699999999998
42
0.41421356237309503
10
-110.97360000000002
20
31.604700000000001
10
-119.91140482878058
20
31.604700000000001
42
0.86883359555666684
10
-119.91140482878058
20
36.654699999999998
10
-115.73610000000002
20
36.654699999999998
42
0.41421356237310542
10
-115.23610000000002
20
37.154699999999998
10
-115.23610000000002
20
50.154700000000005
42
0.41421356237310025
10
-115.73610000000002
20
50.654700000000012
10
-128.73609999999999
20
50.654700000000005
42
0.41421356237310542
10
-129.23609999999999
20
50.154700000000005
10
-129.23609999999999
20
37.154699999999998
42
0.41421356237309243
10
-128.73609999999999
20
36.654699999999998
10
-120.62379517121946
20
36.654699999999998
42
0.86883359555665474
0
ENDSEC
0
SECTION
2
OBJECTS
0
DICTIONARY
5
C
100
AcDbDictionary
3
ACAD_GROUP
350
D
3
ACAD_MLINESTYLE
350
17
0
DICTIONARY
5
D
100
AcDbDictionary
0
DICTIONARY
5
1A
330
C
100
AcDbDictionary
0
DICTIONARY
5
17
100
AcDbDictionary
0
ENDSEC
0
EOF
